<svg width="33" height="32" viewBox="0 0 33 32" fill="none" xmlns="http://www.w3.org/2000/svg">
<g clip-path="url(#clip0_516_159)">
<path d="M1.65597 17.756L16 5.324L30.344 17.756C30.5449 17.9264 30.805 18.0108 31.0678 17.9906C31.3305 17.9705 31.5747 17.8476 31.7474 17.6486C31.9201 17.4496 32.0074 17.1905 31.9903 16.9275C31.9732 16.6646 31.853 16.419 31.656 16.244L16.656 3.244C16.4741 3.0864 16.2416 2.99963 16.001 2.99963C15.7603 2.99963 15.5278 3.0864 15.346 3.244L9.99997 7.87601V6.00001C9.99997 5.46957 9.78926 4.96086 9.41418 4.58579C9.03911 4.21072 8.5304 4.00001 7.99997 4.00001C7.46954 4.00001 6.96083 4.21072 6.58576 4.58579C6.21068 4.96086 5.99997 5.46957 5.99997 6.00001V11.342L0.343971 16.244C0.143951 16.4183 0.0211277 16.6647 0.0023859 16.9294C-0.0163559 17.194 0.0705105 17.4553 0.243971 17.656C0.607971 18.072 1.23797 18.118 1.65597 17.756ZM12 22H20V32H26C26.5304 32 27.0391 31.7893 27.4142 31.4142C27.7893 31.0391 28 30.5304 28 30V20.198C28 19.598 27.732 19.032 27.268 18.652L17.268 10.454C16.9107 10.1602 16.4625 9.99949 16 9.99949C15.5374 9.99949 15.0892 10.1602 14.732 10.454L4.73197 18.652C4.50285 18.8392 4.31829 19.0751 4.19168 19.3425C4.06506 19.6099 3.99958 19.9021 3.99997 20.198V30C3.99997 30.5304 4.21068 31.0391 4.58576 31.4142C4.96083 31.7893 5.46954 32 5.99997 32H12V22Z" fill="#0EA5E9"/>
</g>
<defs>
<clipPath id="clip0_516_159">
<rect width="32.236" height="32" fill="white"/>
</clipPath>
</defs>
</svg>
