<svg width="20" height="16" viewBox="0 0 20 16" fill="none" xmlns="http://www.w3.org/2000/svg">
<path d="M13 13H16C16.7956 13 17.5587 12.6839 18.1213 12.1213C18.6839 11.5587 19 10.7957 19 10C19 9.20436 18.6839 8.4413 18.1213 7.87869C17.5587 7.31608 16.7956 7.00001 16 7.00001H15.975C15.9908 6.8338 15.9992 6.66697 16 6.50001C15.9962 5.17336 15.5131 3.89279 14.6396 2.89429C13.7661 1.89579 12.5611 1.24667 11.2467 1.06656C9.93236 0.88645 8.59718 1.18749 7.48727 1.91419C6.37736 2.64089 5.56752 3.74428 5.207 5.02101C5.137 5.01701 5.071 5.00001 5 5.00001C3.93913 5.00001 2.92172 5.42144 2.17157 6.17158C1.42143 6.92173 1 7.93914 1 9.00001C1 10.0609 1.42143 11.0783 2.17157 11.8284C2.92172 12.5786 3.93913 13 5 13H7.167M10 15V6.00001M10 6.00001L8 8.00001M10 6.00001L12 8.00001" stroke="#6B7280" stroke-width="2" stroke-linecap="round" stroke-linejoin="round"/>
</svg>
